# xmcd
#
# Track frame offsets: 
#        183
#        14983
#        29218
#        50375
#        66830
#        93218
#        109028
#        129543
#        157883
#
# Disc length: 2455 seconds
#
# Revision: 11
# Processed by: cddbd v1.5.2PL0 Copyright (c) Steve Scherf et al.
# Submitted via: ExactAudioCopy v1.3
#
DISCID=78099509
DTITLE=Ry Cooder - Get Rhythm
DYEAR=1987
DGENRE=Blues
TTITLE0=Get Rhythm
TTITLE1=Low-Commotion
TTITLE2=Going Back to Okinawa
TTITLE3=13 Question Method
TTITLE4=Women Will Rule the World
TTITLE5=All Shook Up
TTITLE6=I Can Tell by the Way You Smell
TTITLE7=Across the Borderline
TTITLE8=Let's Have a Ball
EXTD=YEAR: 1987
EXTT0=
EXTT1=
EXTT2=
EXTT3=
EXTT4=
EXTT5=
EXTT6=
EXTT7=
EXTT8=
PLAYORDER=
